<?xml version="1.0" encoding="UTF-8"?>
<!DOCTYPE svg PUBLIC "-//W3C//DTD SVG 1.1//EN" "http://www.w3.org/Graphics/SVG/1.1/DTD/svg11.dtd">
<svg xmlns="http://www.w3.org/2000/svg" xml:space="preserve" width="48" height="48" version="1.1" style="shape-rendering:geometricPrecision; text-rendering:geometricPrecision; image-rendering:optimizeQuality; fill-rule:evenodd; clip-rule:evenodd"
viewBox="13000 2000 18000 18000"
 xmlns:xlink="http://www.w3.org/1999/xlink">
 <defs>
  <style type="text/css">
   <![CDATA[
    .fil1 {fill:#1E1E21}
    .fil2 {fill:#1F1B20}
    .fil6 {fill:#26386E}
    .fil0 {fill:#2991E2}
    .fil9 {fill:#2991E2}
    .fil10 {fill:#2DA9EA}
    .fil8 {fill:#FEBF34}
    .fil4 {fill:#FFFCFF}
    .fil3 {fill:url(#id0)}
    .fil7 {fill:url(#id1)}
    .fil5 {fill:url(#id2)}
   ]]>
  </style>
  <linearGradient id="id0" gradientUnits="userSpaceOnUse" x1="21122.6" y1="5352.82" x2="24660.1" y2="13929.8">
   <stop offset="0" style="stop-opacity:1; stop-color:#9F30C7"/>
   <stop offset="0.360784" style="stop-opacity:1; stop-color:#5B45AF"/>
   <stop offset="1" style="stop-opacity:1; stop-color:#175B97"/>
  </linearGradient>
  <linearGradient id="id1" gradientUnits="userSpaceOnUse" x1="21102.1" y1="7945.55" x2="25614.9" y2="13669.1">
   <stop offset="0" style="stop-opacity:1; stop-color:#9F30C7"/>
   <stop offset="1" style="stop-opacity:1; stop-color:#0E006B"/>
  </linearGradient>
  <linearGradient id="id2" gradientUnits="userSpaceOnUse" x1="21817.6" y1="6314.31" x2="25454.5" y2="10907.3">
   <stop offset="0" style="stop-opacity:1; stop-color:#9F30C7"/>
   <stop offset="0.560784" style="stop-opacity:1; stop-color:#7823AE"/>
   <stop offset="1" style="stop-opacity:1; stop-color:#501695"/>
  </linearGradient>
 </defs>
 <g id="Layer_x0020_1">
  <metadata id="CorelCorpID_0Corel-Layer"/>
  <g id="_607191912">
   <path class="fil3" d="M21902 4675c-4442,555 -4490,7628 1059,7494 1230,-30 2000,-666 2494,-1262 633,-763 800,-1817 646,-3025 -243,-1901 -1964,-3486 -4199,-3207z"/>
   <path class="fil4" d="M21232 11765c-11,-11 -28,-42 -33,-32 0,0 -854,-630 -1120,-1218 167,121 269,275 440,410 152,119 340,278 518,381 2516,1446 5023,-632 4721,-3010 -114,-895 -762,-1867 -1284,-2233 278,136 591,395 772,591 336,365 472,689 622,823 -490,-1793 -3455,-3523 -5680,-1501 -2343,2129 -511,5384 1044,5789z"/>
   <path class="fil5" d="M21177 8264l25 -497c208,727 289,1355 778,1777l-162 -552c407,570 776,1422 1813,1617 -93,-96 -181,-176 -281,-252 579,184 1316,482 1550,-123 -1206,-151 -1851,-699 -2337,-1377 -255,-356 -474,-802 -576,-1291 -159,-758 -14,-980 119,-1643 -495,95 -777,391 -909,824 -138,456 -173,1074 -20,1517z"/>
   <path class="fil6" d="M22356 8077l-57 -725c156,240 192,583 310,837 141,301 239,452 420,662l-161 -652c184,170 304,447 460,677 790,1168 1904,1273 1977,488 -773,-315 -1090,-410 -1662,-1204 -772,-1069 -519,-1568 -494,-2260 -761,-83 -927,-28 -1027,686 -78,552 38,1091 234,1491z"/>
   <path class="fil7" d="M20789 9930c111,-184 -7,-268 -14,-456 265,622 852,1402 1548,1524 -153,-163 -244,-213 -360,-433 502,207 1308,851 1999,543 -252,-163 -685,-74 -1430,-578 -1380,-934 -1973,-2502 -1376,-4223 -855,554 -1081,1676 -763,2705 120,389 285,622 396,918z"/>
   <path class="fil6" d="M23543 7626l-50 -551c256,445 429,1017 796,1235l-137 -518c219,195 335,491 501,706 73,95 222,225 317,306 135,117 224,178 406,121 231,-582 -219,-1553 -484,-1914 -254,-347 -898,-975 -1515,-1026 -302,482 -73,1240 166,1641z"/>
   <path class="fil8" d="M23520 9779c4,-4 622,388 1380,455 -222,573 -869,345 -1458,152 95,72 101,132 189,223 -744,-339 -368,-572 -111,-830z"/>
   <path class="fil8" d="M23911 9518c667,527 1338,449 1394,-154 -384,-157 -583,-234 -882,-411 0,0 -19,125 -177,305 -159,180 -335,260 -335,260z"/>
   <path class="fil8" d="M21484 10523c297,2 574,-44 823,-156 75,54 150,109 225,163 230,153 461,271 705,358 303,109 573,104 723,224 -635,259 -1264,-172 -1994,-541 110,151 275,341 357,428 -318,-53 -583,-231 -839,-476z"/>
   <path class="fil8" d="M24671 8520c73,94 204,203 299,284 135,117 224,178 406,121 231,-582 -204,-1521 -468,-1882l-13 707c-42,263 -102,507 -224,770z"/>
   <path class="fil8" d="M23631 10608c-310,-56 -608,-183 -889,-418 162,-65 304,-107 408,-161 275,-143 357,-257 370,-250 15,10 -90,170 -108,598 -3,87 219,231 219,231z"/>
   <path class="fil9" d="M21902 4675c-4442,555 -4490,7628 1059,7494 1230,-30 2000,-666 2494,-1262 633,-763 800,-1817 646,-3025 -243,-1901 -1964,-3486 -4199,-3207z"/>
   <path class="fil4" d="M21232 11765c-11,-11 -28,-42 -33,-32 0,0 -854,-630 -1120,-1218 167,121 269,275 440,410 152,119 340,278 518,381 2516,1446 5023,-632 4721,-3010 -114,-895 -762,-1867 -1284,-2233 278,136 591,395 772,591 336,365 472,689 622,823 -490,-1793 -3455,-3523 -5680,-1501 -2343,2129 -511,5384 1044,5789z"/>
   <path class="fil10" d="M21177 8264l25 -497c208,727 289,1355 778,1777l-162 -552c407,570 776,1422 1813,1617 -93,-96 -181,-176 -281,-252 579,184 1316,482 1550,-123 -1206,-151 -1851,-699 -2337,-1377 -255,-356 -474,-802 -576,-1291 -159,-758 -14,-980 119,-1643 -495,95 -777,391 -909,824 -138,456 -173,1074 -20,1517z"/>
   <path class="fil0" d="M22356 8077l-57 -725c156,240 192,583 310,837 141,301 239,452 420,662l-161 -652c184,170 304,447 460,677 790,1168 1904,1273 1977,488 -773,-315 -1090,-410 -1662,-1204 -772,-1069 -519,-1568 -494,-2260 -761,-83 -927,-28 -1027,686 -78,552 38,1091 234,1491z"/>
   <path class="fil10" d="M20789 9930c111,-184 -7,-268 -14,-456 265,622 852,1402 1548,1524 -153,-163 -244,-213 -360,-433 502,207 1308,851 1999,543 -252,-163 -685,-74 -1430,-578 -1380,-934 -1973,-2502 -1376,-4223 -855,554 -1081,1676 -763,2705 120,389 285,622 396,918z"/>
   <path class="fil0" d="M23543 7626l-50 -551c256,445 429,1017 796,1235l-137 -518c219,195 335,491 501,706 73,95 222,225 317,306 135,117 224,178 406,121 231,-582 -219,-1553 -484,-1914 -254,-347 -898,-975 -1515,-1026 -302,482 -73,1240 166,1641z"/>
   <path class="fil8" d="M23520 9779c4,-4 622,388 1380,455 -222,573 -869,345 -1458,152 95,72 101,132 189,223 -744,-339 -368,-572 -111,-830z"/>
   <path class="fil8" d="M23911 9518c667,527 1338,449 1394,-154 -384,-157 -583,-234 -882,-411 0,0 -19,125 -177,305 -159,180 -335,260 -335,260z"/>
   <path class="fil8" d="M21484 10523c297,2 574,-44 823,-156 75,54 150,109 225,163 230,153 461,271 705,358 303,109 573,104 723,224 -635,259 -1264,-172 -1994,-541 110,151 275,341 357,428 -318,-53 -583,-231 -839,-476z"/>
   <path class="fil8" d="M24671 8520c73,94 204,203 299,284 135,117 224,178 406,121 231,-582 -204,-1521 -468,-1882l-13 707c-42,263 -102,507 -224,770z"/>
   <path class="fil8" d="M23631 10608c-310,-56 -608,-183 -889,-418 162,-65 304,-107 408,-161 275,-143 357,-257 370,-250 15,10 -90,170 -108,598 -3,87 219,231 219,231z"/>
  </g>
 </g>
</svg>
